<?xml version="1.0" standalone="no"?>
<!DOCTYPE svg PUBLIC "-//W3C//DTD SVG 20010904//EN"
 "http://www.w3.org/TR/2001/REC-SVG-20010904/DTD/svg10.dtd">
<svg version="1.0" xmlns="http://www.w3.org/2000/svg"
 width="512.000000pt" height="512.000000pt" viewBox="0 0 512.000000 512.000000"
 preserveAspectRatio="xMidYMid meet">

<g transform="translate(0.000000,512.000000) scale(0.100000,-0.100000)"
fill="#000000" stroke="none">
<path d="M1390 3739 c-55 -25 -96 -62 -121 -111 -16 -31 -19 -59 -19 -179 0
-163 13 -205 78 -259 96 -79 288 -81 387 -5 92 69 86 195 -9 195 -32 0 -34 -2
-39 -42 -7 -53 -48 -93 -106 -103 -93 -15 -171 23 -191 93 -17 62 -13 212 8
252 25 50 74 80 134 80 94 0 148 -41 148 -112 0 -37 1 -38 38 -38 46 0 82 32
82 74 0 39 -34 101 -70 126 -74 53 -236 67 -320 29z"/>
<path d="M1895 3735 l-25 -24 0 -291 0 -290 26 0 c28 0 65 16 76 34 4 6 8 69
8 139 l0 129 29 29 c37 36 99 41 131 9 18 -18 20 -33 20 -181 l0 -162 40 6
c69 9 70 11 70 184 0 124 -3 162 -17 190 -43 92 -175 107 -258 29 -19 -18 -35
-30 -35 -25 0 4 5 11 10 14 6 4 10 55 10 121 l0 114 -30 0 c-19 0 -40 -9 -55
-25z"/>
<path d="M2827 3742 c-40 -44 -8 -112 53 -112 62 0 96 74 52 113 -25 23 -85
22 -105 -1z"/>
<path d="M2466 3576 c-94 -35 -127 -80 -134 -180 -9 -145 17 -208 103 -247 93
-43 239 -9 285 65 28 47 29 224 1 276 -40 75 -168 118 -255 86z m138 -107 c25
-19 26 -25 26 -113 0 -77 -3 -96 -18 -109 -46 -42 -141 -28 -162 23 -7 18 -11
60 -8 105 3 67 6 79 28 96 34 26 100 25 134 -2z"/>
<path d="M2872 3579 c-21 -6 -36 -19 -42 -35 -6 -14 -10 -113 -10 -220 l0
-194 33 0 c18 0 43 7 55 16 22 15 22 19 22 230 0 165 -3 214 -12 213 -7 0 -28
-5 -46 -10z"/>
<path d="M3188 3580 c-90 -27 -129 -81 -136 -186 -7 -111 4 -159 45 -205 40
-44 82 -59 163 -59 99 1 170 49 170 116 0 37 -14 51 -58 60 -27 6 -32 4 -32
-13 0 -34 -46 -68 -92 -68 -32 0 -45 6 -65 29 -23 27 -25 36 -21 114 3 74 6
86 27 103 34 28 96 25 126 -6 14 -13 25 -31 25 -40 0 -20 39 -20 68 1 58 40 1
132 -96 153 -60 13 -85 13 -124 1z"/>
<path d="M3646 3576 c-98 -37 -136 -98 -136 -221 1 -153 66 -225 205 -225 93
0 175 47 175 101 0 31 -16 47 -57 55 -26 5 -31 3 -37 -20 -8 -32 -38 -48 -90
-48 -47 1 -86 36 -86 78 l0 24 121 0 c66 0 129 5 140 10 15 9 19 22 19 71 0
63 -9 89 -44 127 -47 52 -141 73 -210 48z m128 -97 c17 -14 26 -30 26 -50 l0
-29 -90 0 c-90 0 -90 0 -90 25 0 65 97 99 154 54z"/>
<path d="M1223 2693 c-92 -194 -95 -201 -88 -224 15 -47 38 -44 200 26 l154
67 53 -17 c192 -63 372 -204 492 -383 74 -112 110 -220 131 -394 l6 -48 41 0
40 0 -6 68 c-11 100 -42 223 -75 297 -88 193 -274 385 -471 485 -61 31 -178
70 -210 70 -15 0 -74 -20 -130 -45 -56 -25 -104 -44 -106 -42 -2 2 19 52 47
110 l51 107 186 0 187 0 -47 -27 c-27 -14 -46 -28 -44 -30 2 -3 47 -19 99 -37
175 -60 352 -181 462 -315 31 -39 61 -71 66 -71 4 0 20 10 35 23 l26 23 -49
60 c-102 122 -245 236 -375 300 -32 16 -58 31 -58 34 0 4 11 12 25 18 33 15
43 57 20 82 -17 19 -33 20 -302 20 l-284 0 -76 -157z"/>
<path d="M3256 2831 c-24 -26 -15 -63 19 -81 14 -7 25 -16 25 -19 0 -3 -35
-24 -77 -46 -134 -68 -301 -209 -381 -322 l-22 -31 31 -23 32 -22 46 54 c135
160 302 276 484 337 48 16 89 33 90 37 1 4 -18 18 -43 31 l-45 23 188 1 188 0
50 -106 c27 -59 48 -109 46 -111 -2 -2 -50 17 -107 42 -57 25 -117 45 -134 45
-49 -1 -197 -62 -291 -121 -160 -100 -339 -306 -395 -456 -32 -85 -56 -188
-64 -270 l-6 -73 39 0 c43 0 51 12 51 81 0 56 37 187 75 268 101 213 316 401
542 475 l53 17 154 -66 c126 -54 159 -64 175 -56 41 22 36 46 -51 229 l-84
177 -285 3 c-274 2 -286 1 -303 -17z"/>
<path d="M2491 2533 c-18 -9 -47 -35 -62 -56 -23 -32 -29 -50 -29 -94 0 -63
16 -99 64 -141 41 -36 107 -50 158 -33 48 16 104 78 118 129 36 139 -117 260
-249 195z m122 -75 c33 -17 46 -39 47 -78 0 -68 -62 -114 -120 -90 -41 17 -60
46 -60 91 0 65 75 108 133 77z"/>
<path d="M2333 2126 l-28 -24 3 -119 c1 -66 6 -162 11 -213 9 -98 15 -110 76
-145 15 -9 19 -35 26 -205 4 -107 8 -203 9 -213 0 -10 11 -29 25 -42 22 -23
32 -25 110 -25 92 0 118 8 136 41 6 12 15 113 20 228 7 179 11 207 26 216 9 6
29 21 43 35 29 27 29 28 46 317 l7 112 -31 30 -30 31 -211 0 c-208 0 -210 0
-238 -24z m418 -166 c-2 -58 -6 -136 -10 -175 l-6 -70 -41 -19 -41 -18 -7 -91
c-3 -49 -6 -122 -6 -161 0 -39 -3 -101 -7 -138 l-6 -68 -57 0 -57 0 -6 83 c-4
45 -7 114 -7 153 0 39 -3 105 -6 146 l-7 75 -43 22 c-43 20 -44 22 -45 68 0
27 -4 102 -8 168 -5 66 -7 123 -4 128 2 4 86 6 186 5 l182 -3 -4 -105z"/>
</g>
</svg>
